# xmcd CD database file
#
# Track frame offsets:
#	150
#	14017
#	26728
#	40225
#	55246
#	69961
#	82638
#	99323
#	109555
#	125971
#	136735
#	152402
#
# Disc length: 2207 seconds
#
# Revision: 0
# Processed by: cddbd v1.5.1PL0 Copyright (c) Steve Scherf et al.
# Submitted via: CDex 1.51
#
DISCID=8f089d0c
DTITLE=呂珊 - 至愛十二
DYEAR=2003
DGENRE=Jazz
TTITLE0=一生何求
TTITLE1=雪中情
TTITLE2=陌上歸人
TTITLE3=今宵多珍重
TTITLE4=喝采
TTITLE5=無奈
TTITLE6=荷花香
TTITLE7=黃昏放牛
TTITLE8=午夜結他
TTITLE9=遲來的春天
TTITLE10=夢中人
TTITLE11=夢
EXTD=YEAR: 2003
EXTT0=
EXTT1=
EXTT2=
EXTT3=
EXTT4=
EXTT5=
EXTT6=
EXTT7=
EXTT8=
EXTT9=
EXTT10=
EXTT11=
PLAYORDER=
